# xmcd
#
# Track frame offsets:
# 150
# 18275
# 35505
# 53313
# 71417
# 87386
# 108158
# 130793
# 150837
# 171435
# 193684
# 210701
#
# Disc length: 3125 seconds
#
#
# Revision: 0
# Processed by: cddbd v1.5.1PL0 Copyright (c) Steve Scherf et al.
# Submitted via: FreeRIP 2.942 
#
DISCID=910c330c
DTITLE=Ray Charles - Genius Loves Company (Enhanced)
DYEAR=2004
DGENRE=Blues
TTITLE0=Here We Go Again - Feat Norah Jones
TTITLE1=Sweet Potato Pid - Feat James Taylor
TTITLE2=You Don't Know Me - Feat Diana Krall
TTITLE3=Sorry Seems to Be The Hardest Word - Feat Elton John
TTITLE4=Fever - Feat Natalie Cole
TTITLE5=Do I Ever Cross Your Mind - Feat Bonnie Raitt
TTITLE6=It Was a Very Good Year - Feat Willie Nelson
TTITLE7=Hey Girl - Feat Michael McDonald
TTITLE8=Sinner's Prayer - Feat B.B. King
TTITLE9=Heaven Help Us All - Feat Gladys Knight
TTITLE10=Somewhere Over The Rainbow - Feat Johnny Mathis
TTITLE11=Crazy Love - Feat Van Morrison
EXTD=
EXTT0=
EXTT1=
EXTT2=
EXTT3=
EXTT4=
EXTT5=
EXTT6=
EXTT7=
EXTT8=
EXTT9=
EXTT10=
EXTT11=
PLAYORDER=
